<svg width="20" height="20" viewBox="0 0 20 20" fill="none" xmlns="http://www.w3.org/2000/svg">
<path d="M7.34186 1.6665L4.3252 4.6915" stroke="white" stroke-width="1.2" stroke-miterlimit="10" stroke-linecap="round" stroke-linejoin="round"/>
<path d="M12.6582 1.6665L15.6749 4.6915" stroke="white" stroke-width="1.2" stroke-miterlimit="10" stroke-linecap="round" stroke-linejoin="round"/>
<path d="M1.66699 6.54167C1.66699 5 2.49199 4.875 3.51699 4.875H16.4837C17.5087 4.875 18.3337 5 18.3337 6.54167C18.3337 8.33333 17.5087 8.20833 16.4837 8.20833H3.51699C2.49199 8.20833 1.66699 8.33333 1.66699 6.54167Z" stroke="white" stroke-width="1.2"/>
<path d="M8.13379 11.6665V14.6248" stroke="white" stroke-width="1.2" stroke-linecap="round"/>
<path d="M11.9668 11.6665V14.6248" stroke="white" stroke-width="1.2" stroke-linecap="round"/>
<path d="M2.91699 8.3335L4.09199 15.5335C4.35866 17.1502 5.00033 18.3335 7.38366 18.3335H12.4087C15.0003 18.3335 15.3837 17.2002 15.6837 15.6335L17.0837 8.3335" stroke="white" stroke-width="1.2" stroke-linecap="round"/>
</svg>
